<?xml version="1.0" standalone="no"?>
<!DOCTYPE svg PUBLIC "-//W3C//DTD SVG 20010904//EN"
 "http://www.w3.org/TR/2001/REC-SVG-20010904/DTD/svg10.dtd">
<svg version="1.0" xmlns="http://www.w3.org/2000/svg"
 width="732.000000pt" height="732.000000pt" viewBox="0 0 732.000000 732.000000"
 preserveAspectRatio="xMidYMid meet">
<metadata>
Created by potrace 1.14, written by Peter Selinger 2001-2017
</metadata>
<g transform="translate(0.000000,732.000000) scale(0.100000,-0.100000)"
fill="#000000" stroke="none">
<path d="M3017 7096 c-52 -19 -99 -57 -122 -100 -18 -32 -40 -46 -185 -117
-91 -45 -174 -85 -185 -90 -11 -5 -27 -13 -35 -19 -8 -5 -150 -75 -315 -156
-792 -387 -702 -346 -736 -329 -110 57 -248 7 -299 -108 -25 -55 -20 -140 10
-193 l23 -40 -116 -169 c-64 -94 -160 -235 -214 -315 -54 -80 -101 -149 -106
-155 -4 -5 -34 -48 -65 -95 -32 -47 -96 -140 -143 -208 -46 -68 -89 -132 -95
-142 -6 -11 -18 -28 -27 -38 -10 -10 -17 -24 -17 -30 0 -7 -4 -12 -9 -12 -5 0
-13 -9 -16 -21 -4 -11 -13 -18 -20 -15 -7 2 -16 2 -19 -2 -4 -3 -14 -7 -23 -8
-28 -4 -66 -27 -96 -57 -99 -99 -81 -257 38 -338 l40 -27 2 -736 1 -736 -27
-15 c-44 -22 -99 -90 -111 -137 -21 -77 2 -163 58 -216 35 -33 99 -62 138 -62
34 0 30 3 135 -140 34 -47 77 -106 95 -131 18 -25 141 -193 273 -375 132 -181
245 -334 251 -341 5 -7 20 -27 33 -45 12 -18 34 -49 49 -68 24 -32 26 -42 22
-93 -8 -105 35 -194 114 -232 20 -10 44 -22 54 -26 18 -9 123 -5 149 6 11 4
126 -47 320 -143 903 -444 957 -472 972 -496 68 -103 168 -145 288 -123 32 6
105 43 114 57 4 6 177 10 500 10 l493 0 74 26 c40 14 78 26 83 28 6 2 17 6 25
9 35 13 300 105 328 113 7 2 14 3 17 4 3 0 18 6 35 15 16 8 37 17 47 18 10 2
30 9 44 14 75 32 104 35 150 20 142 -49 292 36 324 183 7 32 37 70 56 70 4 0
14 6 21 13 7 7 67 52 133 99 66 48 128 93 137 100 9 7 26 20 38 28 12 8 137
98 279 201 l257 185 32 -13 c46 -19 99 -20 155 -4 123 35 184 188 121 306 -18
35 -23 56 -18 74 11 41 14 50 17 64 5 19 38 129 48 157 4 14 58 192 120 395
175 582 201 669 204 685 2 8 17 58 34 110 16 52 39 127 51 165 18 62 25 73 60
93 60 34 95 101 95 182 -1 89 -31 142 -105 187 -31 19 -39 33 -67 120 -17 54
-75 233 -129 398 -54 165 -99 305 -100 310 -2 11 -78 248 -124 385 -15 47 -56
171 -89 276 -58 181 -60 193 -47 225 30 75 0 193 -62 247 -51 43 -85 55 -157
57 -75 2 -75 3 -241 125 -19 14 -67 48 -107 75 -39 28 -74 53 -77 57 -3 3 -30
23 -60 44 -30 20 -57 40 -60 43 -3 3 -13 11 -22 16 -17 11 -216 153 -233 168
-10 8 -126 92 -270 194 -172 123 -267 195 -262 200 8 7 -22 85 -41 108 -44 52
-84 70 -159 70 -64 0 -76 -3 -115 -31 -24 -17 -53 -29 -63 -27 -11 1 -47 5
-80 8 -33 3 -69 7 -81 9 -12 2 -57 7 -100 11 -43 3 -86 8 -94 10 -16 4 -83 12
-170 20 -30 3 -73 7 -95 10 -22 3 -59 8 -82 10 -22 2 -65 6 -95 10 -29 3 -69
8 -88 10 -19 2 -57 6 -85 10 -69 8 -118 13 -200 20 -115 10 -129 14 -153 46
-30 38 -118 79 -168 79 -21 -1 -56 -7 -77 -14z m388 -251 c33 -3 76 -7 95 -9
39 -5 114 -13 205 -22 33 -3 89 -9 124 -14 35 -5 67 -9 70 -8 3 0 8 0 11 -1 3
-1 28 -4 55 -6 28 -2 70 -7 95 -10 25 -4 63 -8 85 -10 83 -7 161 -15 195 -20
19 -2 62 -7 95 -10 76 -8 118 -15 123 -20 2 -2 6 -18 9 -36 8 -53 52 -112 103
-137 69 -33 131 -30 207 9 19 10 32 4 110 -52 48 -35 105 -75 125 -89 21 -14
38 -28 38 -32 0 -5 5 -8 10 -8 12 0 123 -80 128 -92 2 -5 8 -8 12 -8 5 0 47
-28 94 -62 47 -35 129 -94 183 -133 177 -126 245 -177 240 -182 -3 -2 -26 3
-51 11 -25 8 -55 18 -68 20 -27 6 -108 27 -193 51 -63 17 -199 53 -225 60 -8
2 -42 11 -74 20 -33 8 -67 17 -75 19 -9 2 -23 5 -31 8 -8 3 -33 10 -55 16 -22
6 -59 16 -82 22 -33 8 -46 18 -58 44 -19 39 -85 90 -135 103 -48 13 -118 6
-160 -16 -22 -12 -40 -15 -50 -10 -38 22 -413 199 -421 199 -5 0 -9 5 -9 10 0
6 -3 9 -7 8 -11 -2 -27 5 -563 264 -80 38 -169 81 -197 95 -29 14 -50 29 -48
34 3 4 11 6 18 4 7 -2 39 -6 72 -10z m-505 -79 c13 -16 15 -11 -156 -363 -53
-109 -112 -232 -131 -273 -20 -41 -36 -76 -37 -77 -1 -1 -17 -5 -35 -8 -43 -7
-89 -31 -122 -62 l-27 -25 -258 72 c-143 40 -266 73 -274 75 -8 2 -15 4 -15 5
0 1 -7 3 -15 5 -16 4 -44 12 -145 40 -32 9 -61 18 -63 20 -3 2 20 15 49 28 30
14 126 59 214 102 179 87 327 157 335 160 3 1 52 24 110 52 58 28 182 87 275
132 94 45 190 92 215 105 55 29 64 30 80 12z m570 -174 c47 -22 139 -66 205
-97 66 -32 156 -74 200 -95 44 -21 148 -70 230 -109 232 -111 307 -147 347
-165 31 -15 36 -21 32 -44 -3 -15 -6 -27 -7 -28 -3 -3 -119 -14 -197 -19 -36
-2 -87 -7 -115 -10 -27 -2 -81 -7 -120 -10 -38 -3 -92 -7 -120 -10 -27 -2 -86
-7 -130 -11 -44 -3 -96 -7 -116 -9 -36 -4 -129 -12 -244 -20 -167 -13 -210
-17 -350 -29 -33 -3 -92 -8 -131 -11 -39 -3 -92 -7 -118 -10 -45 -3 -47 -2
-75 39 l-29 42 45 95 c25 52 66 137 91 189 25 52 47 101 48 108 1 8 10 22 18
31 9 10 16 21 16 26 0 4 22 54 50 111 l49 104 43 0 c24 0 65 11 93 23 l49 23
76 -37 c41 -20 113 -55 160 -77z m-1870 -568 c0 4 8 2 18 -3 11 -6 30 -12 43
-15 13 -3 51 -12 84 -21 33 -9 67 -18 75 -20 8 -2 40 -11 70 -20 55 -16 112
-32 140 -39 8 -2 65 -18 125 -36 124 -35 119 -34 161 -44 37 -8 51 -48 28 -80
-8 -11 -14 -18 -14 -15 0 3 -24 -17 -53 -45 -30 -28 -93 -87 -142 -131 -48
-44 -100 -91 -115 -105 -15 -14 -64 -59 -109 -100 -46 -41 -95 -86 -110 -100
-15 -14 -64 -59 -109 -100 -46 -41 -100 -91 -121 -110 -21 -19 -79 -73 -131
-120 -51 -47 -105 -96 -120 -110 -15 -14 -69 -63 -120 -110 -52 -47 -117 -106
-144 -131 -99 -91 -131 -117 -136 -114 -4 2 50 169 118 372 68 202 125 373
126 378 2 6 6 17 9 25 3 8 36 105 72 215 125 373 147 435 159 435 30 0 106 63
126 105 23 47 38 58 58 42 6 -5 12 -6 12 -3z m3386 -99 c89 -27 360 -103 424
-119 8 -2 74 -21 145 -41 72 -20 137 -38 145 -41 61 -15 205 -56 212 -60 4 -3
18 -7 30 -9 95 -18 118 -29 119 -54 2 -80 17 -124 61 -171 31 -34 68 -57 109
-68 l34 -8 -1 -120 c-1 -94 -10 -298 -13 -311 -1 -2 -12 -3 -25 -3 -15 0 -78
44 -177 122 -85 67 -159 126 -165 132 -7 6 -24 20 -40 31 -28 20 -85 65 -94
75 -3 3 -34 27 -70 55 -36 27 -74 57 -85 67 -23 19 -229 182 -400 318 -66 52
-127 100 -135 107 -8 7 -43 35 -78 63 -69 54 -68 57 4 35z m-414 -60 c16 -14
35 -25 43 -25 18 0 23 -19 19 -76 -2 -27 -6 -92 -9 -144 -6 -116 -14 -252 -20
-341 l-4 -66 62 -31 c82 -41 92 -43 93 -12 1 14 5 61 8 105 3 44 9 114 12 155
3 41 7 98 9 125 12 130 17 213 17 243 0 35 9 39 35 17 55 -44 547 -446 584
-475 23 -19 51 -43 61 -52 10 -10 20 -18 23 -18 3 0 34 -24 68 -52 34 -29 82
-69 106 -88 24 -19 48 -40 55 -45 6 -6 80 -66 164 -134 83 -68 155 -127 157
-132 14 -22 -27 -56 -83 -69 -31 -8 -59 -14 -62 -15 -3 -1 -18 -5 -35 -9 -16
-5 -68 -19 -115 -32 -47 -12 -96 -25 -110 -28 -14 -3 -72 -18 -130 -33 -119
-32 -152 -35 -156 -13 -7 45 -16 90 -25 130 -6 25 -13 56 -15 70 -3 14 -8 28
-12 31 -13 13 -553 282 -556 278 -2 -2 -7 -49 -10 -104 -4 -55 -8 -120 -11
-145 -9 -94 -17 -197 -19 -252 -2 -56 -1 -58 30 -73 18 -8 49 -33 70 -55 26
-27 44 -38 58 -35 12 2 21 4 21 5 0 1 7 3 15 5 8 1 78 19 155 39 77 21 147 39
155 41 8 2 42 11 75 19 72 19 88 20 82 4 -2 -7 0 -24 5 -37 5 -14 11 -44 14
-68 4 -34 2 -43 -11 -44 -8 -1 -18 -2 -22 -3 -41 -10 -72 -17 -89 -20 -12 -3
-38 -9 -58 -14 -20 -6 -36 -8 -36 -6 0 3 -8 0 -17 -5 -10 -5 -36 -12 -58 -15
-22 -4 -48 -9 -57 -12 -9 -3 -25 -6 -35 -8 -10 -2 -38 -10 -63 -17 -25 -7 -50
-12 -56 -11 -6 1 -14 -12 -17 -30 -3 -18 -8 -40 -11 -48 -6 -15 3 -26 125
-161 37 -41 78 -86 89 -100 12 -13 38 -42 58 -64 75 -84 119 -133 192 -215 41
-46 84 -94 95 -106 73 -80 156 -173 174 -194 11 -14 20 -20 21 -14 0 6 -14 78
-31 160 -17 82 -32 160 -35 174 -3 14 -7 32 -9 40 -2 8 -7 31 -10 50 -3 19 -9
44 -12 55 -4 11 -7 27 -8 35 -1 8 -10 51 -19 95 -10 44 -19 89 -22 100 -2 11
-8 43 -14 70 -6 28 -12 59 -14 70 -2 11 -11 55 -20 97 -22 105 -22 105 22 114
20 4 39 8 42 9 25 7 79 19 95 21 11 2 38 8 60 14 49 13 70 18 115 27 42 9 48
10 58 13 4 1 12 3 17 5 6 1 12 3 15 4 3 2 14 4 25 5 11 2 51 11 88 20 l68 16
52 -53 c35 -35 66 -57 95 -65 33 -10 42 -17 38 -30 -3 -9 -8 -51 -11 -92 -3
-41 -7 -93 -10 -115 -2 -22 -7 -69 -10 -105 -3 -36 -8 -81 -10 -100 -3 -19 -7
-62 -10 -95 -8 -92 -16 -179 -30 -305 -6 -53 -11 -101 -20 -205 -4 -54 -9 -98
-21 -215 -4 -41 -8 -92 -8 -112 -1 -21 -3 -38 -6 -38 -3 0 -6 -30 -8 -66 -3
-91 -12 -104 -43 -64 -13 17 -44 52 -69 79 -25 26 -72 78 -104 115 -33 37 -71
80 -85 96 -14 15 -50 55 -80 89 -30 34 -55 60 -57 58 -2 -2 3 -37 12 -78 9
-41 18 -85 20 -99 2 -14 7 -36 10 -50 3 -14 8 -36 10 -50 5 -25 5 -25 -21 5
-44 50 -86 98 -124 141 -20 22 -61 69 -91 104 -30 35 -65 74 -78 87 -13 13
-21 23 -18 23 2 0 -8 12 -22 28 -15 15 -56 60 -92 101 -36 41 -69 79 -75 85
-5 6 -39 45 -75 86 -35 41 -67 77 -70 80 -3 3 -37 41 -75 85 -39 44 -72 82
-75 85 -3 3 -29 33 -59 68 -38 45 -59 61 -70 57 -22 -9 -50 -15 -89 -19 -18
-2 -35 -6 -36 -7 -2 -2 -61 -141 -130 -309 -70 -168 -137 -325 -148 -350 -12
-25 -21 -51 -21 -57 0 -7 -4 -13 -8 -13 -3 0 -9 -10 -12 -22 -4 -20 -60 -156
-110 -271 -8 -17 -35 -81 -60 -142 -25 -60 -67 -159 -92 -218 -25 -59 -45
-112 -45 -116 0 -5 7 -15 16 -22 9 -8 27 -30 40 -51 22 -34 27 -37 61 -33 21
3 76 7 123 10 47 3 117 7 155 10 39 3 108 7 155 10 47 4 105 8 130 9 25 2 95
7 155 11 61 4 130 8 155 10 25 2 90 6 145 9 55 4 112 8 128 10 15 2 27 0 27
-4 0 -8 -79 -109 -107 -138 -7 -7 -13 -16 -13 -19 0 -4 167 3 250 12 19 2 85
7 145 10 61 4 126 8 145 10 52 4 124 7 133 6 9 -1 -52 -125 -64 -129 -5 -2 -9
-12 -9 -22 0 -10 -3 -20 -7 -22 -5 -1 -20 -27 -36 -57 -54 -105 -140 -266
-147 -276 -6 -8 -81 -148 -159 -300 -9 -16 -19 -31 -23 -33 -5 -2 -8 -12 -8
-23 0 -10 -4 -19 -10 -19 -5 0 -10 -4 -10 -9 0 -6 -42 -88 -94 -183 -51 -95
-115 -213 -141 -263 -59 -111 -58 -110 -88 -113 -21 -1 -36 13 -84 76 -32 42
-61 79 -64 82 -4 3 -30 37 -60 75 -29 39 -55 72 -58 75 -4 3 -19 23 -36 45
-16 22 -32 42 -35 45 -3 3 -28 34 -55 70 -28 36 -57 72 -65 81 -23 24 -60 77
-60 86 0 5 12 23 28 40 15 17 41 48 57 68 17 20 35 42 40 49 6 6 51 61 100
121 49 61 99 121 111 135 13 14 79 93 147 176 69 84 130 155 136 159 20 12 2
24 -32 20 -17 -2 -75 -7 -127 -10 -52 -3 -126 -8 -165 -10 -38 -3 -106 -7
-150 -10 -44 -2 -80 -5 -80 -5 0 -1 -27 -3 -60 -5 -52 -3 -141 -9 -310 -20
-22 -2 -61 -4 -86 -4 -45 -1 -46 -2 -68 -51 l-22 -50 108 -137 c59 -76 128
-163 153 -194 25 -31 56 -72 70 -90 14 -18 49 -62 77 -98 29 -36 53 -69 53
-72 0 -4 -43 -6 -95 -5 -53 2 -98 0 -100 -4 -2 -3 6 -17 18 -31 12 -13 52 -62
87 -109 36 -47 67 -87 70 -90 3 -3 34 -43 70 -90 35 -47 67 -87 70 -90 3 -3
35 -43 70 -90 36 -47 67 -87 70 -90 28 -25 98 -130 88 -131 -7 0 -22 -2 -33
-4 -11 -2 -45 -7 -75 -10 -30 -3 -68 -8 -85 -10 -16 -2 -52 -7 -80 -10 -27 -3
-84 -10 -125 -15 -41 -6 -97 -12 -125 -15 -27 -3 -66 -7 -85 -10 -19 -3 -57
-7 -85 -10 -27 -3 -59 -7 -70 -9 -11 -2 -56 -7 -100 -11 -44 -4 -82 -8 -85
-10 -3 -2 -35 -6 -70 -9 -36 -3 -74 -8 -85 -10 -25 -4 -128 -17 -175 -22 -50
-4 -141 -15 -170 -19 -83 -13 -220 -26 -220 -22 0 2 10 23 22 48 12 24 23 46
23 49 1 3 14 32 29 65 32 68 70 151 114 245 16 36 63 137 104 225 41 88 90
193 108 232 l34 72 285 -5 c157 -3 310 -7 339 -8 54 -2 61 3 39 26 -7 7 -39
47 -71 88 -31 41 -68 89 -82 105 -13 17 -68 86 -121 155 -95 121 -99 126 -129
119 -44 -8 -49 -13 -64 -59 -7 -22 -19 -45 -27 -51 -7 -6 -13 -17 -13 -24 0
-7 -15 -44 -34 -81 -18 -38 -50 -107 -71 -154 -21 -47 -42 -91 -48 -97 -6 -9
-38 -13 -94 -13 -106 0 -112 -35 51 303 53 110 96 203 96 209 0 5 -16 26 -35
45 -19 19 -40 50 -47 70 l-13 35 -55 -6 c-30 -4 -66 -8 -80 -10 -14 -2 -45 -7
-70 -10 -25 -3 -54 -8 -65 -10 -11 -2 -47 -7 -80 -11 -32 -4 -68 -9 -78 -11
-11 -2 -40 -6 -65 -9 -26 -3 -54 -7 -62 -9 -8 -3 -40 -7 -71 -11 -31 -3 -65
-7 -75 -9 -17 -3 -72 -11 -147 -21 -82 -11 -114 -16 -137 -20 -14 -2 -50 -7
-80 -10 -30 -4 -77 -11 -104 -16 -84 -16 -91 -13 -133 44 -63 87 -83 106 -106
102 -35 -6 -99 -15 -142 -21 -22 -3 -51 -7 -65 -9 -14 -2 -52 -7 -85 -10 -33
-4 -79 -10 -102 -14 -24 -5 -41 -6 -39 -2 2 3 25 53 52 111 27 57 69 146 94
198 l45 95 110 -143 c61 -78 121 -155 135 -172 28 -32 14 -31 178 -13 18 2 45
6 60 9 26 6 74 12 157 21 22 3 50 7 63 10 13 2 51 7 85 10 72 8 101 11 142 19
27 4 245 34 305 41 14 1 44 5 68 9 47 7 98 14 157 21 113 14 200 27 205 31 6
7 -52 57 -145 126 -5 4 -23 18 -40 31 -16 13 -102 79 -190 146 -88 68 -175
135 -194 149 -72 57 -202 157 -356 274 -88 67 -162 125 -165 128 -3 3 -25 20
-49 37 -30 22 -49 30 -60 24 -9 -4 -36 -8 -61 -7 l-45 1 -49 -100 c-26 -55
-65 -136 -86 -180 -21 -44 -64 -134 -95 -200 -31 -66 -72 -153 -91 -192 -19
-40 -36 -73 -39 -73 -2 0 -23 25 -46 55 -23 30 -46 55 -51 55 -5 0 -16 -17
-24 -37 -8 -21 -19 -45 -24 -53 -6 -8 -15 -26 -21 -39 -5 -14 -24 -54 -41 -90
-17 -37 -46 -99 -64 -138 -33 -72 -34 -72 -61 -62 -16 6 -50 12 -78 13 l-50 2
-22 64 c-12 36 -40 117 -63 180 -23 63 -43 122 -45 130 -4 15 -101 292 -112
320 -3 8 -7 20 -9 25 -2 9 -34 100 -194 555 -101 289 -140 403 -140 412 0 4
20 18 43 29 l44 21 75 -35 c42 -20 104 -49 139 -66 35 -16 98 -45 139 -64 325
-151 384 -177 390 -170 4 4 13 36 20 71 7 34 14 62 16 62 5 0 128 -57 205 -95
38 -19 72 -34 74 -35 3 0 25 -9 51 -20 25 -11 48 -20 50 -20 3 0 19 16 36 36
17 19 48 42 69 50 39 16 46 33 54 128 3 37 12 111 20 166 2 14 6 52 10 86 3
33 7 71 10 85 5 32 16 133 29 259 4 36 9 76 11 90 8 55 20 158 29 250 3 30 8
66 11 79 9 45 15 151 8 151 -6 0 -402 -180 -412 -186 -5 -4 -125 -484 -136
-546 -3 -15 -10 -39 -15 -53 -5 -14 -12 -40 -15 -58 -4 -18 -17 -75 -31 -128
-14 -53 -26 -105 -28 -115 -12 -60 -29 -114 -36 -114 -11 0 -75 28 -185 81
-49 24 -92 44 -95 44 -3 1 -43 19 -90 41 -47 22 -109 51 -139 65 -30 13 -86
40 -125 59 -70 35 -71 36 -71 75 0 22 -4 46 -8 52 -10 16 14 40 188 193 72 63
137 122 145 130 8 9 48 45 89 80 41 36 82 72 91 80 67 61 184 165 203 180 12
10 43 37 68 61 25 24 74 69 109 99 35 30 74 65 87 77 38 34 160 143 185 165
13 11 39 34 58 51 19 18 73 66 120 107 47 41 88 79 91 84 19 25 20 -30 4 -164
-2 -14 -6 -52 -10 -85 -3 -33 -8 -71 -11 -85 -2 -14 -6 -50 -9 -80 -3 -30 -8
-65 -10 -77 -3 -13 -3 -23 -1 -23 13 0 156 71 156 77 0 5 4 37 10 73 5 36 11
92 15 125 9 95 16 148 20 170 2 11 4 27 4 35 1 19 80 53 95 42 6 -5 72 -53
146 -108 74 -54 137 -102 138 -106 2 -5 10 -8 18 -8 28 0 13 -20 -28 -39 -24
-11 -88 -40 -143 -66 -99 -46 -145 -67 -155 -70 -3 0 -24 -11 -46 -23 -23 -11
-44 -19 -46 -16 -3 2 -10 -2 -16 -9 -12 -14 -18 -45 -26 -127 -5 -43 -8 -72
-22 -185 -4 -27 -8 -61 -9 -75 -1 -14 -6 -52 -10 -85 -4 -33 -8 -71 -10 -85
-5 -55 -18 -156 -20 -172 -2 -9 -6 -43 -9 -75 -4 -32 -8 -74 -11 -93 -3 -19
-7 -57 -10 -85 -3 -27 -7 -59 -9 -70 -2 -11 -7 -58 -11 -105 -4 -47 -8 -87
-10 -90 -1 -3 -6 -35 -9 -73 -6 -57 -5 -68 9 -74 10 -3 27 -16 40 -29 l24 -23
53 18 c29 10 55 19 58 19 3 0 12 3 20 6 58 19 187 59 195 60 6 1 78 24 160 50
83 26 236 74 340 108 105 33 195 61 200 62 6 1 77 24 160 50 82 27 154 50 160
51 5 1 17 5 25 8 8 3 83 27 165 52 380 118 352 107 355 135 5 31 -3 40 -92
106 -51 38 -145 107 -208 153 -63 47 -121 91 -128 98 -7 7 -17 13 -20 13 -4 0
-18 10 -32 23 -14 12 -38 30 -53 40 -16 10 -36 25 -45 32 -14 11 -531 395
-610 453 -13 9 -49 36 -79 60 -30 23 -60 42 -65 42 -21 0 5 19 67 48 36 18 65
35 65 39 0 5 -10 14 -22 22 -31 19 -368 270 -368 274 0 2 10 3 23 3 29 1 225
15 402 29 39 4 97 8 130 10 90 5 234 15 285 20 55 5 221 17 275 20 22 2 81 6
130 10 50 4 110 8 135 10 152 9 245 16 246 18 2 1 28 3 59 5 48 2 61 -2 87
-23z m-3478 -407 c-36 -106 -67 -200 -71 -208 -3 -8 -7 -20 -9 -27 -4 -21 -26
-88 -33 -98 -3 -5 -6 -14 -7 -20 -1 -5 -32 -98 -69 -205 -36 -107 -67 -199
-69 -205 -1 -5 -18 -57 -37 -114 -33 -101 -35 -104 -77 -123 -113 -53 -154
-186 -93 -301 16 -31 27 -57 25 -60 -3 -2 -6 -13 -8 -23 -3 -11 -28 -111 -56
-224 -28 -113 -53 -212 -55 -220 -2 -8 -20 -80 -40 -160 -41 -159 -43 -169
-44 -187 -1 -7 -4 -13 -9 -13 -4 0 -8 236 -8 523 l-1 524 41 21 c65 35 106
110 106 192 0 40 -32 115 -60 145 -22 23 -51 -25 268 443 42 62 82 120 87 130
6 9 13 19 16 22 3 3 44 61 90 130 46 69 87 127 92 128 4 2 7 8 7 13 0 9 69
109 75 109 2 0 -26 -87 -61 -192z m5362 -323 c15 -49 29 -92 29 -95 2 -10 88
-275 96 -295 4 -11 42 -128 84 -260 42 -132 83 -257 91 -279 8 -21 12 -41 9
-44 -7 -7 1 -17 -113 158 -55 85 -115 179 -135 208 -33 51 -34 55 -31 135 3
90 -8 127 -58 185 l-26 32 5 132 c3 73 6 154 7 180 0 26 4 44 7 40 3 -4 19
-47 35 -97z m183 -1065 c83 -129 158 -244 166 -255 20 -25 19 -32 -6 -58 -64
-66 -75 -176 -25 -261 l25 -43 -45 -49 c-25 -27 -91 -98 -147 -158 -129 -139
-137 -148 -223 -243 -125 -137 -160 -173 -167 -173 -4 0 -5 12 -3 28 3 15 7
61 11 102 3 41 9 100 12 130 3 30 7 71 8 90 4 48 14 166 20 217 2 24 7 73 10
110 3 38 8 84 10 103 2 19 6 68 10 108 3 41 8 92 11 115 2 23 7 71 10 107 3
36 7 81 9 100 1 19 6 69 9 110 4 41 8 91 11 110 2 19 7 67 11 105 6 68 10 106
13 114 1 5 88 -125 270 -409z m-5834 -282 c21 -62 42 -121 47 -131 5 -10 11
-26 13 -35 2 -9 26 -80 53 -157 85 -235 93 -259 97 -275 8 -31 42 -120 48
-127 4 -3 7 -17 7 -29 0 -13 5 -26 10 -29 6 -3 10 -17 10 -30 0 -13 4 -26 9
-29 5 -3 11 -16 14 -28 3 -13 33 -102 67 -198 161 -456 154 -431 133 -452 -19
-19 -22 -18 -149 43 -71 33 -156 74 -189 89 -33 15 -131 62 -219 104 -87 42
-161 76 -166 76 -4 0 -10 26 -13 58 -5 66 -22 104 -66 151 -29 31 -30 33 -17
76 8 24 11 46 8 49 -3 4 -1 6 4 6 5 0 11 10 12 23 1 12 25 112 52 222 28 110
53 207 54 215 2 8 14 53 25 100 12 47 23 92 25 100 2 8 14 51 25 95 12 44 24
89 26 100 2 11 6 27 8 35 2 8 7 32 12 53 4 20 10 37 14 37 4 0 24 -51 46 -112z
m6026 -546 c-8 -15 -78 -221 -87 -257 -5 -17 -84 -249 -91 -265 -3 -8 -7 -20
-8 -25 -15 -69 -260 -773 -265 -763 -4 7 -11 31 -15 53 -10 47 -8 39 -34 145
-12 47 -24 96 -27 110 -3 14 -10 41 -14 60 -29 115 -29 122 -5 154 33 45 52
95 53 144 0 23 1 50 1 60 1 9 19 40 42 67 58 71 112 136 124 149 6 6 48 56 94
111 45 55 92 111 105 125 12 14 40 48 61 75 35 44 64 74 73 75 1 0 -2 -8 -7
-18z m-1029 -313 c31 -35 72 -82 92 -104 l35 -40 -20 -21 c-26 -27 -60 -119
-53 -139 3 -8 2 -16 -2 -16 -37 -6 -62 -8 -154 -14 -58 -3 -125 -8 -150 -11
-25 -2 -94 -6 -154 -10 l-109 -6 24 25 c25 25 37 39 109 127 25 30 50 60 55
66 6 6 57 68 115 138 l104 126 26 -28 c14 -16 50 -58 82 -93z m-4552 -869 c1
-65 79 -171 148 -199 36 -15 37 -22 18 -103 -7 -32 -11 -60 -8 -63 3 -3 0 -5
-7 -5 -7 0 -9 -4 -6 -10 3 -5 1 -29 -6 -52 -6 -24 -12 -52 -14 -63 -14 -101
-39 -175 -57 -175 -7 0 -60 66 -118 146 -58 80 -115 157 -127 171 -13 14 -23
29 -23 34 0 4 -6 14 -13 21 -26 27 -107 139 -107 147 0 5 -4 11 -8 13 -7 3
-280 372 -354 478 -27 39 -23 37 327 -138 324 -161 355 -179 355 -202z m4793
318 l44 -11 32 -111 c17 -61 33 -121 36 -133 3 -12 9 -33 14 -45 5 -13 9 -26
9 -31 0 -4 8 -33 17 -65 10 -31 19 -64 21 -72 2 -8 11 -42 20 -76 l17 -61 -30
-29 c-43 -42 -65 -90 -68 -152 l-3 -54 -219 -153 c-120 -85 -227 -161 -238
-169 -11 -8 -110 -78 -220 -155 -196 -137 -200 -140 -219 -122 -18 19 -17 22
62 173 44 84 103 198 132 253 29 55 71 136 95 180 23 44 100 190 170 325 71
135 155 295 188 355 32 61 64 122 70 138 13 31 12 31 70 15z m-3713 -258 c9
-15 237 -313 297 -388 l53 -66 112 -2 c62 -2 231 -4 375 -6 145 -2 263 -4 263
-5 0 -1 -30 -64 -66 -140 -178 -371 -303 -634 -332 -695 -15 -32 -29 -58 -32
-58 -3 0 -197 195 -431 433 -828 839 -809 819 -807 847 2 21 7 25 37 26 20 1
52 4 71 7 19 3 58 9 85 13 28 3 57 8 65 9 9 2 43 6 75 10 33 4 69 9 80 11 10
2 37 6 60 10 22 3 42 7 43 9 7 7 46 -5 52 -15z m-76 -857 l603 -607 -28 -38
c-15 -22 -29 -44 -31 -50 -5 -13 -27 -3 -629 296 -262 130 -481 236 -487 236
-14 0 -22 28 -17 69 7 81 -55 192 -125 221 -35 15 -37 27 -16 127 16 76 16 75
42 221 16 92 21 105 43 117 14 8 29 14 34 15 4 0 279 -273 611 -607z m2587
-520 c0 -5 2 -18 5 -30 2 -12 0 -24 -5 -27 -8 -5 -223 -84 -246 -90 -5 -2 -17
-6 -25 -9 -22 -10 -271 -98 -295 -104 -11 -3 -26 -11 -34 -17 -18 -14 -946
-21 -937 -7 4 5 2 28 -3 49 l-8 40 41 6 c22 3 64 8 91 11 28 3 61 8 75 10 14
2 48 6 75 10 28 3 61 7 75 10 13 3 54 7 90 11 36 3 67 8 70 9 3 2 35 6 70 10
36 3 76 8 90 10 14 2 43 6 65 9 56 8 124 17 165 21 19 2 53 6 75 9 79 11 122
16 255 32 25 2 55 7 67 9 23 5 65 11 158 20 32 3 61 8 64 10 7 8 21 6 22 -2z"/>
<path d="M3620 5658 c-19 -10 -80 -39 -135 -64 -289 -130 -285 -128 -267 -145
10 -8 24 -20 33 -25 9 -5 32 -21 50 -36 19 -15 61 -46 94 -71 33 -24 150 -111
260 -193 110 -82 204 -151 209 -153 5 -2 18 -12 30 -21 12 -10 89 -68 171
-129 83 -61 155 -114 160 -118 6 -4 63 -48 129 -97 l119 -88 41 23 c22 12 44
27 47 32 4 5 8 42 9 81 0 39 3 94 5 121 10 144 17 289 19 360 l1 80 -100 51
c-376 192 -812 408 -825 410 -8 1 -31 -7 -50 -18z"/>
<path d="M4353 4170 c-29 -10 -53 -16 -53 -13 0 3 -6 1 -12 -4 -11 -9 -25 -14
-78 -28 -3 0 -52 -16 -110 -35 -58 -19 -107 -34 -110 -35 -3 0 -39 -11 -80
-24 -41 -13 -75 -22 -75 -21 0 1 -18 -5 -40 -14 -22 -8 -150 -49 -285 -91
-135 -42 -252 -79 -260 -82 -8 -3 -19 -7 -25 -8 -5 0 -17 -4 -25 -7 -23 -9
-129 -40 -135 -39 -2 0 -25 -8 -50 -19 -25 -11 -45 -17 -45 -15 0 3 -12 0 -27
-6 -16 -6 -98 -33 -183 -59 -203 -64 -220 -70 -220 -83 0 -7 -7 -24 -15 -40
l-14 -28 257 -192 c141 -105 259 -194 262 -197 3 -3 157 -119 343 -258 279
-208 342 -252 360 -246 27 9 66 15 90 15 18 0 24 10 68 117 5 12 13 32 19 45
5 12 39 94 76 182 36 88 90 216 119 285 29 69 123 295 210 503 152 365 157
379 140 398 -22 23 -35 23 -102 -1z"/>
<path d="M1705 3728 c-2 -7 -37 -146 -78 -308 -59 -241 -70 -298 -60 -310 18
-21 134 -173 158 -206 75 -104 115 -143 115 -114 0 6 21 54 46 108 26 53 62
131 81 172 51 108 110 234 150 319 l35 73 -26 53 c-23 44 -35 55 -79 75 -29
13 -107 49 -173 81 -148 69 -163 74 -169 57z"/>
</g>
</svg>
